<svg width="21" height="21" viewBox="0 0 21 21" fill="none" xmlns="http://www.w3.org/2000/svg">
<path d="M18.375 0H2.625C1.18125 0 0 1.18125 0 2.625V18.375C0 19.8187 1.18125 21 2.625 21H18.375C19.8187 21 21 19.8187 21 18.375V2.625C21 1.18125 19.8187 0 18.375 0ZM7.21875 9.84375C7.21875 10.9331 6.33937 11.8125 5.25 11.8125H3.9375V14.4375H1.96875V6.5625H5.25C6.33937 6.5625 7.21875 7.44187 7.21875 8.53125V9.84375ZM13.7812 12.4687C13.7812 13.5581 12.9019 14.4375 11.8125 14.4375H8.53125V6.5625H11.8125C12.9019 6.5625 13.7812 7.44187 13.7812 8.53125V12.4687ZM19.0312 8.53125H17.0625V9.84375H19.0312V11.8125H17.0625V14.4375H15.0937V6.5625H19.0312V8.53125ZM3.9375 9.84375H5.25V8.53125H3.9375V9.84375ZM10.5 12.4687H11.8125V8.53125H10.5V12.4687Z" fill="white"/>
</svg>
