<svg width="17" height="13" viewBox="0 0 17 13" fill="none" xmlns="http://www.w3.org/2000/svg">
<path fill-rule="evenodd" clip-rule="evenodd" d="M1.49462 0H15.5063C15.7364 0 15.9519 0.0532812 16.1467 0.141062L10.1739 5.76222L10.1737 5.76234L10.1735 5.76256L8.46727 7.30591L0.854492 0.140938C1.04929 0.0532188 1.26462 0 1.49462 0ZM0 1.40618C0 1.18971 0.0565449 0.987055 0.149746 0.803711L5.77034 6.09368L0.149613 11.3835C0.0564785 11.2002 0 10.9975 0 10.7812V1.40618ZM8.81868 8.29994L10.5252 6.75641L16.1457 12.0463C15.9509 12.134 15.7356 12.1872 15.5056 12.1872H1.49387C1.26381 12.1872 1.04835 12.134 0.853516 12.0462L6.47434 6.75635L8.11444 8.29994C8.21169 8.3915 8.33916 8.43728 8.46656 8.43728C8.59396 8.43728 8.72139 8.3915 8.81868 8.29994ZM16.8502 0.803711L11.2295 6.09352L16.85 11.3834C16.9432 11.2001 16.9998 10.9974 16.9998 10.781V1.40596C16.9998 1.18962 16.9433 0.986992 16.8502 0.803711Z" fill="#00BCA0"/>
</svg>
