<svg width="12" height="13" viewBox="0 0 12 13" fill="none" xmlns="http://www.w3.org/2000/svg">
<path fill-rule="evenodd" clip-rule="evenodd" d="M3.13788 0.323587L4.62927 1.93962C5.04084 2.38474 5.0422 3.10797 4.62927 3.5553L4.38067 3.82464L1.39746 0.593006L1.64616 0.323587C2.04473 -0.10823 2.73996 -0.107494 3.13788 0.323587ZM7.94801 8.76913C7.63418 9.0325 7.18648 9.02199 6.89972 8.71065L3.95089 5.51388C3.66348 5.20251 3.6538 4.71715 3.89692 4.37801L0.920572 1.15381C-0.35984 2.77068 -0.309778 5.20698 1.10338 6.73791L5.76985 11.7955C7.12594 13.2645 9.34723 13.4594 10.9245 11.9934L7.94801 8.76913ZM11.6908 9.59197L10.1994 7.97593C9.80148 7.54485 9.10626 7.54411 8.70768 7.97593L8.45898 8.24535L11.4422 11.477L11.6908 11.2077C12.1037 10.7603 12.1024 10.0371 11.6908 9.59197Z" fill="#00BCA0"/>
</svg>
